# xmcd CD database file
#
# Track frame offsets:
#	150
#	8977
#	27930
#	39084
#	47073
#	69386
#	83548
#	89778
#	96382
#	108977
#	114958
#	128423
#	142284
#	153651
#	163887
#
# Disc length: 2605 seconds
#
# Revision: 0
# Processed by: cddbd v1.5.2PL0 Copyright (c) Steve Scherf et al.
# Submitted via: CDex 1.70beta2
#
DISCID=c20a2b0f
DTITLE=Cserháti Zsuzsa - Életem zenéje - Disk 1
DYEAR=1900
DGENRE=Jazz
TTITLE0=Cserháti Zsuzsa - Kicsi, gyere velem rózsát szedni
TTITLE1=Cserháti Zsuzsa - Boldogság, gyere haza
TTITLE2=Cserháti Zsuzsa - Árva fiű
TTITLE3=Cserháti Zsuzsa - Szeretni bolondulásig
TTITLE4=Cserháti Zsuzsa - Különös szilveszter
TTITLE5=Cserháti Zsuzsa - Megfagyott föld
TTITLE6=Cserháti Zsuzsa - Könnyű, mint az egyszeregy
TTITLE7=Cserháti Zsuzsa - Hold ragyog a Dunán
TTITLE8=Cserháti Zsuzsa - Szeretlek én
TTITLE9=Cserháti Zsuzsa - Ha tudnék szeretni
TTITLE10=Cserháti Zsuzsa - Pinocchio
TTITLE11=Cserháti Zsuzsa - A boldogság és én
TTITLE12=Cserháti Zsuzsa - Nézd, milyen szép az éjjel
TTITLE13=Cserháti Zsuzsa - Mindig az a perc
TTITLE14=Cserháti Zsuzsa - Édes kisfiam - Én leszek - Kicsi, gyere velem rózsát szedni
EXTD=
EXTT0=
EXTT1=
EXTT2=
EXTT3=
EXTT4=
EXTT5=
EXTT6=
EXTT7=
EXTT8=
EXTT9=
EXTT10=
EXTT11=
EXTT12=
EXTT13=
EXTT14=
PLAYORDER=
